<svg width="32" height="32" viewBox="0 0 40 40" fill="none" xmlns="http://www.w3.org/2000/svg">
  <defs>
    <linearGradient id="fg" x1="0%" y1="0%" x2="100%" y2="100%">
      <stop offset="0%" stop-color="#0EA5E9"/>
      <stop offset="100%" stop-color="#14B8A6"/>
    </linearGradient>
  </defs>
  <rect width="40" height="40" rx="10" fill="#0F172A"/>
  <circle cx="31" cy="9" r="2.2" fill="#14B8A6"/>
  <circle cx="36" cy="16" r="1.8" fill="#0EA5E9"/>
  <circle cx="33" cy="23" r="1.6" fill="#14B8A6"/>
  <circle cx="27" cy="18" r="1.4" fill="#38BDF8"/>
  <line x1="31" y1="9" x2="36" y2="16" stroke="#14B8A6" stroke-width="1.2" stroke-opacity="0.7"/>
  <line x1="36" y1="16" x2="33" y2="23" stroke="#0EA5E9" stroke-width="1.2" stroke-opacity="0.7"/>
  <line x1="31" y1="9" x2="27" y2="18" stroke="#38BDF8" stroke-width="1.2" stroke-opacity="0.5"/>
  <circle cx="16" cy="16" r="10" stroke="url(#fg)" stroke-width="2.5" fill="none"/>
  <circle cx="13" cy="13" r="1.8" fill="#0EA5E9"/>
  <circle cx="19" cy="12" r="1.5" fill="#14B8A6"/>
  <circle cx="17" cy="19" r="1.5" fill="#38BDF8"/>
  <line x1="13" y1="13" x2="19" y2="12" stroke="#0EA5E9" stroke-width="1" stroke-opacity="0.8"/>
  <line x1="19" y1="12" x2="17" y2="19" stroke="#14B8A6" stroke-width="1" stroke-opacity="0.8"/>
  <line x1="13" y1="13" x2="17" y2="19" stroke="#38BDF8" stroke-width="1" stroke-opacity="0.6"/>
  <line x1="23.5" y1="23.5" x2="31" y2="31" stroke="url(#fg)" stroke-width="2.5" stroke-linecap="round"/>
</svg>
